<?xml version="1.0" encoding="UTF-8"?>
<svg id="Capa_1" xmlns="http://www.w3.org/2000/svg" version="1.1" viewBox="0 0 960 560">
  <!-- Generator: Adobe Illustrator 29.5.0, SVG Export Plug-In . SVG Version: 2.1.0 Build 137)  -->
  <path d="M758.12,354.7c-1.42-6.44-6.64-12.3-14.33-16.09-18.23-9.02-41.77-18.23-148.31-18.81-1.06,0-2.13-.01-3.21-.02-99.67-.31-181.59,15.59-325.95,47.43l-7.58,1.67v-.04c-7.33,1.49-14.35,2.24-20.91,2.2h0c-13.32-.08-24.76-3.29-33.97-9.55-8.64-5.86-14.96-14.1-18.79-24.5-5.7-15.45-5.27-34.57,1.2-53.84,6.93-20.59,20.09-39.86,38.06-55.71,18.89-16.66,42.12-21,52.85-20.95.41,0,.8,0,1.16.03,2.14.12,6.2.8,7.66,1.85.81.68,3.26,2.72,1.1,7.05-3.88,7.75-4.77,13.15-2.72,16.51,1.76,2.87,3.86,4.31,10.39,4.34.43,0,.87,0,1.31,0,14.76-.4,16.22-9.41,17.19-15.38l.07-.43c1.49-9.31-1.95-15.01-9.75-18.98-8.7-4.44-18.08-5.66-28.06-5.71-13.41-.08-28.05,3.3-42.35,9.76-12.27,5.54-24.2,13.32-33.61,21.93-33.55,30.68-49.49,89.29-34.8,127.99,4.7,12.37,12.18,22.12,22.26,28.97,11.09,7.54,25.15,11.42,41.79,11.51,9.92.05,20.86-1.25,32.52-3.89v-.04l.26-.06c30.7-6.79,55.68-12.87,77.72-18.24,32.14-7.82,59.9-14.57,93.21-20.58,54.54-9.84,98.52-16.94,167.94-18.49,6.8-.16,13.65-.22,20.39-.18,67.86.37,115.95,9.87,118.29,18.53.42,1.53-.48,2.99-2.68,4.33-4.03,2.48-5.79,5.15-5.09,7.74,1.03,3.77,7.42,6.99,13.96,7.03,4.18.02,7.51-1.27,9.38-3.63,3.3-4.16,4.48-8.91,3.42-13.74Z"/>
  <path d="M292.73,317.38c-1.73-.94-.24-5.51.87-9.64,2.72-10.16,8.38-30.8,8.85-33.41.15-.69,4.32-11.47-3.02-11.5-12.95-.06-13.88,6.67-14.41,7.42,0,0-25.42-12.27-44.55,14.69-1.87,2.7-16.97,24.46-11.48,44.93.96,3.49,5.01,13.15,19.25,12.08,8.77-.76,18.06-7.42,21.32-13.71.04,1.9,7.23,6.52,16.45,5.07,2.91-.46,31.42-5.24,43.99-53.18-2.16,11.52,20.2,24.46,11.32,34.92-2.38,2.8-9.62,1.9-4.87-4.79,2.72-3.86-8.21-8.58-11.61-2.82-3.57,6.07.69,11.24,2.26,12.46,8.81,6.86,26.67,5.71,39.11-15.36,1.52,4.12,6.1,11.72,18.83,10.77,8.76-.75,18.05-7.41,21.32-13.71-.47.9,3.09,3,3.57,3.25,1.94,1,4.08,1.61,6.24,1.89,4.32.57,8.72-.03,12.78-1.61,2.25-.89,4.41-2.12,6.28-3.66,2.54-2.1,4.74-4.59,6.74-7.19,1.76-2.28,4-5,3.94-8.05-.06-2.7-5.11-2.21-6.76-.54-1.8,1.8-7.25,6.44-9.69,5,.03.02.04.05.07.07l-.08-.07h0c-1.59-1.04-.14-5.51.95-9.57,2.72-10.16,8.37-30.81,8.84-33.42.15-.69,4.32-11.67-3.02-11.51-13.34.3-13.89,6.68-14.41,7.43,0,0-25.42-12.28-44.55,14.68-1.52,2.2-11.79,17-12.62,33.47-.58,2.04-1.18,3.84-1.85,5.16-.4.72-1.06,1.67-1.97,2.6-1.89-6.44-9.21-14.32-12.9-24.43-2.13-5.82-1.89-9.94,1.36-16.21,1.83-3.53,5.29-7.99-4.96-7.76-5.41.12-10.73,2.26-16.06,8.62-4.85,5.87-8.07,12.38-9.78,18.85-8.93,33.94-22.72,40.44-25.78,38.78ZM269.44,313.98c-2.99,6.7-13.04,16.93-18.17,8.08-2.17-3.73-1.83-9.59,2.6-20.57,5.88-14.15,11.1-21.71,15.91-22.73,3.47-.74,6.09.22,7.76,2.87,2.55,4.11-5.84,27.28-8.1,32.35ZM390.69,274.85c5.88-14.15,11.11-21.71,15.91-22.73,3.48-.74,6.09.22,7.77,2.87,2.54,4.11-5.84,27.29-8.11,32.35-2.99,6.7-13.04,16.93-18.17,8.08-2.17-3.73-1.83-9.59,2.6-20.57Z"/>
  <path d="M612.39,213.67c1.84,1.05,3.88,1.54,6.29,1.34,3.83-.21,6.95-1.99,9.27-5.24,2.28-3.23,3.21-6.84,2.65-10.92-.38-2.66-1.33-4.5-2.95-5.44-2.16-1.31-4.58-1.86-7.19-1.64-3.76.2-6.7,1.98-8.74,5.35-2.22,3.59-3.09,7.14-2.6,10.61.33,2.86,1.47,4.78,3.27,5.94Z"/>
  <path d="M462.87,278.66c-6.05,7.36.93,15.21,3.06,16.86,11.91,9.28,35.06,8.92,51.88-17.85,4.72-7.8,10.11-22.67,11.74-27.28,0,0,.21-1.3,2.17-1.47,1.6-.15,3.95-.39,6.23-.73,1.79-.27,2.44.64,2.44.64,4.96,6.12,8.95,11.26,4.12,30.15-3.66,14.31,5.17,16.71,12.93,16.53,17.72-.39,32.92-26.85,32.22-24.4-1.48,4.73-3.82,12.92-3.46,16.51.98,9.81,18.17,14.39,37.78-15.85-.48.74-1.64,10.49,1.3,15.89,2.13,3.95,5.01,6.81,8.48,8.6,2.72,1.41,5.71,2.04,9.04,1.91,8.35-.32,17.82-4.37,26.93-11.8v-.11c.03.41.03.83.08,1.24.2,1.11.59,2.54,1.3,4.07,1.91,4.11,6.15,8.85,15.57,9.48,7.77.43,15.73-1.7,20.75-7.93.55,4.27,3.28,7.9,7.02,10.1,4.26,2.52,10.34,2.27,14.82.44,4.42-1.81,8.13-4.32,11.52-7.65,2.17-2.13,4.5-4.53,4.81-7.16.32-2.65-5.4-2.34-6.49-1.48-1.96,1.55-7.95,5.27-10.12,3.51-1.37-1.32,1.68-8.53,3.3-12.34,4.06-9.53,13.1-29.38,13.92-31.87.24-.64,4.89-9.42-1.42-10.4-11.07-1.73-13.67,1.75-14.29,2.4,0,0-15.24-12.94-33.51-2.37-3.24,1.88-6.58,4.48-9.95,8.05-1.69,1.84-12.58,13.63-16.34,28.42-.08.38-.13.77-.19,1.16-2.6,2.8-5.05,5.07-7.46,6.67-4.17,2.69-7.65,4.27-10.44,4.07-18.1-1.3-1.48-46.4,8.2-46.4,7.08,0,1.36,6.15,1.8,9.46.58,4.28,11.58,5.45,14.6-6.02,2.52-9.58-4.85-14.02-13.66-13.99-9.39.02-17.39,4.93-22.37,10.86-4.44,5.28-25.86,31.9-30.4,32-.59,0-1.44-.21-1.47-1.48-.05-2.34,10.66-35.67,11.38-38.24,1.9-6.74-1.79-5.69-10.67-5.69-5.75,0-9.4,9.46-10.06,11.89-6.94,25.06-33.13,42.43-32.98,37.45.13-4.35,5.38-17.57-6.25-33.19,0,0-.31-.37-.1-.84.14-.31.6-.5.6-.5,11.43-5.17,20.73-12,27.7-23.03,14.89-23.51,9.49-77.25-60.62-67.99,0,0-38.65,3.81-56.6,32.97-16.08,24.48-13.05,63.63,10.14,63.63,15.09,0,15.84-13.24,14.07-19.16-1.82-6.11-10.63-4.23-18.63-3.11-4.31.61-5.37-4.88-5.11-8.22.71-8.87,4.06-19.85,15.16-30.38,5.34-4.92,12.29-9.44,21.16-13.38,2.91-1.23,6.03-2.39,9.41-3.45,27.29-8.58,47.8.17,55.72,9.87,6.5,7.95,6.92,28.34-9.19,43.22-9.81,9.07-31.24,13.41-29.89,8.42,1.15-4.28,5.77-19.5,9.42-33,1.37-5.06-2.37-5.36-6.67-5.17-7.23.32-21.52,21.41-26.79,42.54-16.45,65.77-30.06,57.79-33.08,54.28-1.36-2.25-.3-2.43,1.15-5.55,2.81-6.04-9.68-11.36-15.69-3.81ZM697.74,262.37c7.68-12.98,11.92-17.18,16.74-17.51,3.48-.24,7.07.79,7.15,3.88.14,6.31-9.46,25.8-12.36,30.42-3.84,6.12-13.15,12.26-16.91,2.91-1.59-3.94-.45-9.62,5.39-19.71Z"/>
</svg>